<svg width="184" height="184" viewBox="0 0 184 184" fill="none" xmlns="http://www.w3.org/2000/svg">
<g clip-path="url(#clip0_1_5)" filter="url(#filter0_d_1_5)">
<path d="M92 0C109.405 0 126.419 5.16111 140.89 14.8307C155.362 24.5002 166.641 38.244 173.301 54.3239C179.962 70.4038 181.705 88.0976 178.309 105.168C174.914 122.238 166.532 137.918 154.225 150.225C141.918 162.532 126.238 170.914 109.168 174.309C92.0976 177.705 74.4038 175.962 58.3239 169.301C42.244 162.641 28.5002 151.362 18.8307 136.89C9.16111 122.419 4 105.405 4 88C4 64.6609 13.2714 42.2778 29.7746 25.7746C46.2778 9.2714 68.6609 0 92 0V0Z" fill="black"/>
<path d="M108.131 125.709L105 118.325L103.084 113.571C102.173 111.461 101.156 109.398 100.037 107.391C99.167 105.781 105.121 106.746 109.6 110.528C110.121 111.069 110.598 111.652 111.026 112.27C112.04 113.987 112.962 115.756 113.789 117.57L115.503 114.533L118.735 108.818C126.478 95.228 134.237 88.433 142.013 88.433C144.544 88.4196 147.045 88.9728 149.334 90.052L142.063 97.333C140.958 96.6207 139.689 96.2028 138.377 96.119C135.314 96.119 132.267 97.805 129.238 101.177C126.209 104.549 122.236 110.67 117.321 119.539L115.756 122.371L119.796 132.082L122.068 137.241L124.239 142.349C127.269 149.532 130.08 153.123 132.671 153.123C136.441 153.123 139.185 150.223 140.902 144.423C142.147 144.962 142.77 145.687 142.77 146.598C142.77 148.081 141.76 150.391 139.74 153.527C136.711 158.214 133.277 160.557 129.44 160.557C126.679 160.557 124.213 159.04 122.04 156.005C119.867 152.97 116.813 146.75 112.877 137.343L110.1 130.616L108.989 132.791C99.3283 151.302 89.5327 160.558 79.602 160.558C77.199 160.49 74.8391 159.904 72.684 158.839L80.107 151.606C81.4091 152.311 82.8682 152.677 84.349 152.668C88.759 152.668 93.337 149.296 98.083 142.552C101.501 137.871 104.524 132.914 107.121 127.733L108.131 125.709Z" fill="white"/>
<path d="M54.3 160.558H61.7L62.676 115.62C65.676 105.443 72.499 99.28 78.128 97.6C81.208 96.842 85.41 96.556 91.297 99.1C97.184 101.644 99.069 105.7 100.524 108.256C101.979 110.812 112.482 114.283 110.9 112.047C108.658 108.418 102.277 92.382 86.879 91.34C83.6155 90.9836 80.32 91.0414 77.071 91.5119C71.311 92.5529 64.958 94.874 62.676 100.463L61.7 11.64L54.3 15.171V160.558Z" fill="white"/>
<path d="M108.131 125.709L105 118.325L103.084 113.571C102.173 111.461 101.156 109.398 100.037 107.391C99.167 105.781 105.121 106.746 109.6 110.528C110.121 111.069 110.598 111.652 111.026 112.27C112.04 113.987 112.962 115.756 113.789 117.57L115.503 114.533L118.735 108.818C126.478 95.228 134.237 88.433 142.013 88.433C144.544 88.4196 147.045 88.9728 149.334 90.052L142.063 97.333C140.958 96.6207 139.689 96.2028 138.377 96.119C135.314 96.119 132.267 97.805 129.238 101.177C126.209 104.549 122.236 110.67 117.321 119.539L115.756 122.371L119.796 132.082L122.068 137.241L124.239 142.349C127.269 149.532 130.08 153.123 132.671 153.123C136.441 153.123 139.185 150.223 140.902 144.423C142.147 144.962 142.77 145.687 142.77 146.598C142.77 148.081 141.76 150.391 139.74 153.527C136.711 158.214 133.277 160.557 129.44 160.557C126.679 160.557 124.213 159.04 122.04 156.005C119.867 152.97 116.813 146.75 112.877 137.343L110.1 130.616L108.989 132.791C99.3283 151.302 89.5327 160.558 79.602 160.558C77.199 160.49 74.8391 159.904 72.684 158.839L80.107 151.606C81.4091 152.311 82.8682 152.677 84.349 152.668C88.759 152.668 93.337 149.296 98.083 142.552C101.501 137.871 104.524 132.914 107.121 127.733L108.131 125.709Z" fill="white"/>
<path d="M54.3 160.558H61.7L62.676 115.62C65.676 105.443 72.499 99.28 78.128 97.6C81.208 96.842 85.41 96.556 91.297 99.1C97.184 101.644 99.069 105.7 100.524 108.256C101.979 110.812 112.482 114.283 110.9 112.047C108.658 108.418 102.277 92.382 86.879 91.34C83.6155 90.9836 80.32 91.0414 77.071 91.5119C71.311 92.5529 64.958 94.874 62.676 100.463L61.7 11.64L54.3 15.171V160.558Z" fill="white"/>
<path d="M92 0C109.405 0 126.419 5.16111 140.89 14.8307C155.362 24.5002 166.641 38.244 173.301 54.3239C179.962 70.4038 181.705 88.0976 178.309 105.168C174.914 122.238 166.532 137.918 154.225 150.225C141.918 162.532 126.238 170.914 109.168 174.309C92.0976 177.705 74.4038 175.962 58.3239 169.301C42.244 162.641 28.5002 151.362 18.8307 136.89C9.16111 122.419 4 105.405 4 88C4 64.6609 13.2714 42.2778 29.7746 25.7746C46.2778 9.2714 68.6609 0 92 0V0Z" fill="black"/>
<path d="M108.131 125.709L105 118.325L103.084 113.571C102.173 111.461 101.156 109.398 100.037 107.391C99.167 105.781 105.121 106.746 109.6 110.528C110.121 111.069 110.598 111.652 111.026 112.27C112.04 113.987 112.962 115.756 113.789 117.57L115.503 114.533L118.735 108.818C126.478 95.228 134.237 88.433 142.013 88.433C144.544 88.4196 147.045 88.9728 149.334 90.052L142.063 97.333C140.958 96.6207 139.689 96.2028 138.377 96.119C135.314 96.119 132.267 97.805 129.238 101.177C126.209 104.549 122.236 110.67 117.321 119.539L115.756 122.371L119.796 132.082L122.068 137.241L124.239 142.349C127.269 149.532 130.08 153.123 132.671 153.123C136.441 153.123 139.185 150.223 140.902 144.423C142.147 144.962 142.77 145.687 142.77 146.598C142.77 148.081 141.76 150.391 139.74 153.527C136.711 158.214 133.277 160.557 129.44 160.557C126.679 160.557 124.213 159.04 122.04 156.005C119.867 152.97 116.813 146.75 112.877 137.343L110.1 130.616L108.989 132.791C99.3283 151.302 89.5327 160.558 79.602 160.558C77.199 160.49 74.8391 159.904 72.684 158.839L80.107 151.606C81.4091 152.311 82.8682 152.677 84.349 152.668C88.759 152.668 93.337 149.296 98.083 142.552C101.501 137.871 104.524 132.914 107.121 127.733L108.131 125.709Z" fill="white"/>
<path d="M54.3 160.558H61.7L62.676 115.62C65.676 105.443 72.499 99.28 78.128 97.6C81.208 96.842 85.41 96.556 91.297 99.1C97.184 101.644 99.069 105.7 100.524 108.256C101.979 110.812 112.482 114.283 110.9 112.047C108.658 108.418 102.277 92.382 86.879 91.34C83.6155 90.9836 80.32 91.0414 77.071 91.5119C71.311 92.5529 64.958 94.874 62.676 100.463L61.7 11.64L54.3 15.171V160.558Z" fill="white"/>
<path d="M108.131 125.709L105 118.325L103.084 113.571C102.173 111.461 101.156 109.398 100.037 107.391C99.167 105.781 105.121 106.746 109.6 110.528C110.121 111.069 110.598 111.652 111.026 112.27C112.04 113.987 112.962 115.756 113.789 117.57L115.503 114.533L118.735 108.818C126.478 95.228 134.237 88.433 142.013 88.433C144.544 88.4196 147.045 88.9728 149.334 90.052L142.063 97.333C140.958 96.6207 139.689 96.2028 138.377 96.119C135.314 96.119 132.267 97.805 129.238 101.177C126.209 104.549 122.236 110.67 117.321 119.539L115.756 122.371L119.796 132.082L122.068 137.241L124.239 142.349C127.269 149.532 130.08 153.123 132.671 153.123C136.441 153.123 139.185 150.223 140.902 144.423C142.147 144.962 142.77 145.687 142.77 146.598C142.77 148.081 141.76 150.391 139.74 153.527C136.711 158.214 133.277 160.557 129.44 160.557C126.679 160.557 124.213 159.04 122.04 156.005C119.867 152.97 116.813 146.75 112.877 137.343L110.1 130.616L108.989 132.791C99.3283 151.302 89.5327 160.558 79.602 160.558C77.199 160.49 74.8391 159.904 72.684 158.839L80.107 151.606C81.4091 152.311 82.8682 152.677 84.349 152.668C88.759 152.668 93.337 149.296 98.083 142.552C101.501 137.871 104.524 132.914 107.121 127.733L108.131 125.709Z" fill="white"/>
<path d="M54.3 160.558H61.7L62.676 115.62C65.676 105.443 72.499 99.28 78.128 97.6C81.208 96.842 85.41 96.556 91.297 99.1C97.184 101.644 99.069 105.7 100.524 108.256C101.979 110.812 112.482 114.283 110.9 112.047C108.658 108.418 102.277 92.382 86.879 91.34C83.6155 90.9836 80.32 91.0414 77.071 91.5119C71.311 92.5529 64.958 94.874 62.676 100.463L61.7 11.64L54.3 15.171V160.558Z" fill="white"/>
<path d="M92 0C109.405 0 126.419 5.16111 140.89 14.8307C155.362 24.5002 166.641 38.244 173.301 54.3239C179.962 70.4038 181.705 88.0976 178.309 105.168C174.914 122.238 166.532 137.918 154.225 150.225C141.918 162.532 126.238 170.914 109.168 174.309C92.0976 177.705 74.4038 175.962 58.3239 169.301C42.244 162.641 28.5002 151.362 18.8307 136.89C9.16111 122.419 4 105.405 4 88C4 64.6609 13.2714 42.2778 29.7746 25.7746C46.2778 9.2714 68.6609 0 92 0V0Z" fill="black"/>
<path d="M108.131 125.709L105 118.325L103.084 113.571C102.173 111.461 101.156 109.398 100.037 107.391C99.167 105.781 105.121 106.746 109.6 110.528C110.121 111.069 110.598 111.652 111.026 112.27C112.04 113.987 112.962 115.756 113.789 117.57L115.503 114.533L118.735 108.818C126.478 95.228 134.237 88.433 142.013 88.433C144.544 88.4196 147.045 88.9728 149.334 90.052L142.063 97.333C140.958 96.6207 139.689 96.2028 138.377 96.119C135.314 96.119 132.267 97.805 129.238 101.177C126.209 104.549 122.236 110.67 117.321 119.539L115.756 122.371L119.796 132.082L122.068 137.241L124.239 142.349C127.269 149.532 130.08 153.123 132.671 153.123C136.441 153.123 139.185 150.223 140.902 144.423C142.147 144.962 142.77 145.687 142.77 146.598C142.77 148.081 141.76 150.391 139.74 153.527C136.711 158.214 133.277 160.557 129.44 160.557C126.679 160.557 124.213 159.04 122.04 156.005C119.867 152.97 116.813 146.75 112.877 137.343L110.1 130.616L108.989 132.791C99.3283 151.302 89.5327 160.558 79.602 160.558C77.199 160.49 74.8391 159.904 72.684 158.839L80.107 151.606C81.4091 152.311 82.8682 152.677 84.349 152.668C88.759 152.668 93.337 149.296 98.083 142.552C101.501 137.871 104.524 132.914 107.121 127.733L108.131 125.709Z" fill="white"/>
<path d="M54.3 160.558H61.7L62.676 115.62C65.676 105.443 72.499 99.28 78.128 97.6C81.208 96.842 85.41 96.556 91.297 99.1C97.184 101.644 99.069 105.7 100.524 108.256C101.979 110.812 112.482 114.283 110.9 112.047C108.658 108.418 102.277 92.382 86.879 91.34C83.6155 90.9836 80.32 91.0414 77.071 91.5119C71.311 92.5529 64.958 94.874 62.676 100.463L61.7 11.64L54.3 15.171V160.558Z" fill="white"/>
<path d="M108.131 125.709L105 118.325L103.084 113.571C102.173 111.461 101.156 109.398 100.037 107.391C99.167 105.781 105.121 106.746 109.6 110.528C110.121 111.069 110.598 111.652 111.026 112.27C112.04 113.987 112.962 115.756 113.789 117.57L115.503 114.533L118.735 108.818C126.478 95.228 134.237 88.433 142.013 88.433C144.544 88.4196 147.045 88.9728 149.334 90.052L142.063 97.333C140.958 96.6207 139.689 96.2028 138.377 96.119C135.314 96.119 132.267 97.805 129.238 101.177C126.209 104.549 122.236 110.67 117.321 119.539L115.756 122.371L119.796 132.082L122.068 137.241L124.239 142.349C127.269 149.532 130.08 153.123 132.671 153.123C136.441 153.123 139.185 150.223 140.902 144.423C142.147 144.962 142.77 145.687 142.77 146.598C142.77 148.081 141.76 150.391 139.74 153.527C136.711 158.214 133.277 160.557 129.44 160.557C126.679 160.557 124.213 159.04 122.04 156.005C119.867 152.97 116.813 146.75 112.877 137.343L110.1 130.616L108.989 132.791C99.3283 151.302 89.5327 160.558 79.602 160.558C77.199 160.49 74.8391 159.904 72.684 158.839L80.107 151.606C81.4091 152.311 82.8682 152.677 84.349 152.668C88.759 152.668 93.337 149.296 98.083 142.552C101.501 137.871 104.524 132.914 107.121 127.733L108.131 125.709Z" fill="white"/>
<path d="M54.3 160.558H61.7L62.676 115.62C65.676 105.443 72.499 99.28 78.128 97.6C81.208 96.842 85.41 96.556 91.297 99.1C97.184 101.644 99.069 105.7 100.524 108.256C101.979 110.812 112.482 114.283 110.9 112.047C108.658 108.418 102.277 92.382 86.879 91.34C83.6155 90.9836 80.32 91.0414 77.071 91.5119C71.311 92.5529 64.958 94.874 62.676 100.463L61.7 11.64L54.3 15.171V160.558Z" fill="white"/>
<path d="M92 0C109.405 0 126.419 5.16111 140.89 14.8307C155.362 24.5002 166.641 38.244 173.301 54.3239C179.962 70.4038 181.705 88.0976 178.309 105.168C174.914 122.238 166.532 137.918 154.225 150.225C141.918 162.532 126.238 170.914 109.168 174.309C92.0976 177.705 74.4038 175.962 58.3239 169.301C42.244 162.641 28.5002 151.362 18.8307 136.89C9.16111 122.419 4 105.405 4 88C4 64.6609 13.2714 42.2778 29.7746 25.7746C46.2778 9.2714 68.6609 0 92 0V0Z" fill="black"/>
<path d="M108.131 125.709L105 118.325L103.084 113.571C102.173 111.461 101.156 109.398 100.037 107.391C99.167 105.781 105.121 106.746 109.6 110.528C110.121 111.069 110.598 111.652 111.026 112.27C112.04 113.987 112.962 115.756 113.789 117.57L115.503 114.533L118.735 108.818C126.478 95.228 134.237 88.433 142.013 88.433C144.544 88.4196 147.045 88.9728 149.334 90.052L142.063 97.333C140.958 96.6207 139.689 96.2028 138.377 96.119C135.314 96.119 132.267 97.805 129.238 101.177C126.209 104.549 122.236 110.67 117.321 119.539L115.756 122.371L119.796 132.082L122.068 137.241L124.239 142.349C127.269 149.532 130.08 153.123 132.671 153.123C136.441 153.123 139.185 150.223 140.902 144.423C142.147 144.962 142.77 145.687 142.77 146.598C142.77 148.081 141.76 150.391 139.74 153.527C136.711 158.214 133.277 160.557 129.44 160.557C126.679 160.557 124.213 159.04 122.04 156.005C119.867 152.97 116.813 146.75 112.877 137.343L110.1 130.616L108.989 132.791C99.3283 151.302 89.5327 160.558 79.602 160.558C77.199 160.49 74.8391 159.904 72.684 158.839L80.107 151.606C81.4091 152.311 82.8682 152.677 84.349 152.668C88.759 152.668 93.337 149.296 98.083 142.552C101.501 137.871 104.524 132.914 107.121 127.733L108.131 125.709Z" fill="white"/>
<path d="M54.3 160.558H61.7L62.676 115.62C65.676 105.443 72.499 99.28 78.128 97.6C81.208 96.842 85.41 96.556 91.297 99.1C97.184 101.644 99.069 105.7 100.524 108.256C101.979 110.812 112.482 114.283 110.9 112.047C108.658 108.418 102.277 92.382 86.879 91.34C83.6155 90.9836 80.32 91.0414 77.071 91.5119C71.311 92.5529 64.958 94.874 62.676 100.463L61.7 11.64L54.3 15.171V160.558Z" fill="white"/>
<path d="M108.131 125.709L105 118.325L103.084 113.571C102.173 111.461 101.156 109.398 100.037 107.391C99.167 105.781 105.121 106.746 109.6 110.528C110.121 111.069 110.598 111.652 111.026 112.27C112.04 113.987 112.962 115.756 113.789 117.57L115.503 114.533L118.735 108.818C126.478 95.228 134.237 88.433 142.013 88.433C144.544 88.4196 147.045 88.9728 149.334 90.052L142.063 97.333C140.958 96.6207 139.689 96.2028 138.377 96.119C135.314 96.119 132.267 97.805 129.238 101.177C126.209 104.549 122.236 110.67 117.321 119.539L115.756 122.371L119.796 132.082L122.068 137.241L124.239 142.349C127.269 149.532 130.08 153.123 132.671 153.123C136.441 153.123 139.185 150.223 140.902 144.423C142.147 144.962 142.77 145.687 142.77 146.598C142.77 148.081 141.76 150.391 139.74 153.527C136.711 158.214 133.277 160.557 129.44 160.557C126.679 160.557 124.213 159.04 122.04 156.005C119.867 152.97 116.813 146.75 112.877 137.343L110.1 130.616L108.989 132.791C99.3283 151.302 89.5327 160.558 79.602 160.558C77.199 160.49 74.8391 159.904 72.684 158.839L80.107 151.606C81.4091 152.311 82.8682 152.677 84.349 152.668C88.759 152.668 93.337 149.296 98.083 142.552C101.501 137.871 104.524 132.914 107.121 127.733L108.131 125.709Z" fill="white"/>
<path d="M54.3 160.558H61.7L62.676 115.62C65.676 105.443 72.499 99.28 78.128 97.6C81.208 96.842 85.41 96.556 91.297 99.1C97.184 101.644 99.069 105.7 100.524 108.256C101.979 110.812 112.482 114.283 110.9 112.047C108.658 108.418 102.277 92.382 86.879 91.34C83.6155 90.9836 80.32 91.0414 77.071 91.5119C71.311 92.5529 64.958 94.874 62.676 100.463L61.7 11.64L54.3 15.171V160.558Z" fill="white"/>
</g>
<defs>
<filter id="filter0_d_1_5" x="0" y="0" width="184" height="184" filterUnits="userSpaceOnUse" color-interpolation-filters="sRGB">
<feFlood flood-opacity="0" result="BackgroundImageFix"/>
<feColorMatrix in="SourceAlpha" type="matrix" values="0 0 0 0 0 0 0 0 0 0 0 0 0 0 0 0 0 0 127 0" result="hardAlpha"/>
<feOffset dy="4"/>
<feGaussianBlur stdDeviation="2"/>
<feComposite in2="hardAlpha" operator="out"/>
<feColorMatrix type="matrix" values="0 0 0 0 0 0 0 0 0 0 0 0 0 0 0 0 0 0 0.25 0"/>
<feBlend mode="normal" in2="BackgroundImageFix" result="effect1_dropShadow_1_5"/>
<feBlend mode="normal" in="SourceGraphic" in2="effect1_dropShadow_1_5" result="shape"/>
</filter>
<clipPath id="clip0_1_5">
<rect width="176" height="176" fill="white" transform="translate(4)"/>
</clipPath>
</defs>
</svg>
