<svg width="104" height="26" viewBox="0 0 104 26" fill="none" xmlns="http://www.w3.org/2000/svg">
<path d="M11.1759 0C13.3863 0 15.5471 0.655457 17.3849 1.88348C19.2228 3.11151 20.6553 4.85695 21.5011 6.89909C22.347 8.94122 22.5683 11.1883 22.1371 13.3562C21.7059 15.5242 20.6415 17.5155 19.0785 19.0785C17.5155 20.6415 15.5242 21.7059 13.3562 22.1371C11.1883 22.5683 8.94122 22.347 6.89909 21.5011C4.85695 20.6553 3.11151 19.2228 1.88348 17.3849C0.655457 15.5471 0 13.3863 0 11.1759C0 8.21189 1.17746 5.36925 3.27335 3.27335C5.36925 1.17746 8.21189 0 11.1759 0V0Z" fill="black"/>
<path d="M13.2245 15.965L12.8269 15.0272L12.5836 14.4235C12.4679 14.1555 12.3387 13.8936 12.1966 13.6386C12.0861 13.4342 12.8423 13.5567 13.4111 14.037C13.4773 14.1058 13.5379 14.1798 13.5922 14.2583C13.721 14.4763 13.8381 14.7009 13.9431 14.9314L14.1608 14.5457L14.5712 13.8199C15.5545 12.0939 16.54 11.231 17.5275 11.231C17.8489 11.2293 18.1666 11.2996 18.4573 11.4366L17.5339 12.3613C17.3935 12.2708 17.2324 12.2177 17.0657 12.2071C16.6767 12.2071 16.2898 12.4212 15.9051 12.8495C15.5204 13.2777 15.0159 14.055 14.3916 15.1814L14.1929 15.5411L14.706 16.7744L14.9945 17.4296L15.2702 18.0783C15.655 18.9905 16.012 19.4466 16.3411 19.4466C16.8199 19.4466 17.1683 19.0783 17.3864 18.3417C17.5446 18.4102 17.6236 18.5022 17.6236 18.6179C17.6236 18.8063 17.4954 19.0996 17.2388 19.4979C16.8541 20.0931 16.4181 20.3907 15.9307 20.3907C15.5801 20.3907 15.2669 20.198 14.991 19.8126C14.715 19.4272 14.3271 18.6372 13.8273 17.4425L13.4746 16.5882L13.3335 16.8644C12.1066 19.2153 10.8625 20.3908 9.60136 20.3908C9.29618 20.3822 8.99647 20.3078 8.72278 20.1725L9.66549 19.2539C9.83086 19.3435 10.0162 19.3899 10.2042 19.3888C10.7643 19.3888 11.3457 18.9605 11.9484 18.1041C12.3825 17.5096 12.7664 16.8801 13.0962 16.2221L13.2245 15.965Z" fill="white"/>
<path d="M6.38806 20.3907H7.32786L7.45181 14.6836C7.8328 13.3912 8.69932 12.6085 9.4142 12.3951C9.80536 12.2989 10.339 12.2625 11.0867 12.5856C11.8343 12.9087 12.0737 13.4238 12.2585 13.7484C12.4433 14.073 13.7771 14.5139 13.5762 14.2299C13.2915 13.769 12.4811 11.7324 10.5256 11.6001C10.1111 11.5549 9.69258 11.5622 9.27996 11.622C8.54844 11.7542 7.74162 12.0489 7.45181 12.7587L7.32786 1.47827L6.38806 1.92671V20.3907Z" fill="white"/>
<path d="M13.2245 15.965L12.8269 15.0272L12.5836 14.4235C12.4679 14.1555 12.3387 13.8936 12.1966 13.6386C12.0861 13.4342 12.8423 13.5567 13.4111 14.037C13.4773 14.1058 13.5379 14.1798 13.5922 14.2583C13.721 14.4763 13.8381 14.7009 13.9431 14.9314L14.1608 14.5457L14.5712 13.8199C15.5545 12.0939 16.54 11.231 17.5275 11.231C17.8489 11.2293 18.1666 11.2996 18.4573 11.4366L17.5339 12.3613C17.3935 12.2708 17.2324 12.2177 17.0657 12.2071C16.6767 12.2071 16.2898 12.4212 15.9051 12.8495C15.5204 13.2777 15.0159 14.055 14.3916 15.1814L14.1929 15.5411L14.706 16.7744L14.9945 17.4296L15.2702 18.0783C15.655 18.9905 16.012 19.4466 16.3411 19.4466C16.8199 19.4466 17.1683 19.0783 17.3864 18.3417C17.5446 18.4102 17.6236 18.5022 17.6236 18.6179C17.6236 18.8063 17.4954 19.0996 17.2388 19.4979C16.8541 20.0931 16.4181 20.3907 15.9307 20.3907C15.5801 20.3907 15.2669 20.198 14.991 19.8126C14.715 19.4272 14.3271 18.6372 13.8273 17.4425L13.4746 16.5882L13.3335 16.8644C12.1066 19.2153 10.8625 20.3908 9.60136 20.3908C9.29618 20.3822 8.99647 20.3078 8.72278 20.1725L9.66549 19.2539C9.83086 19.3435 10.0162 19.3899 10.2042 19.3888C10.7643 19.3888 11.3457 18.9605 11.9484 18.1041C12.3825 17.5096 12.7664 16.8801 13.0962 16.2221L13.2245 15.965Z" fill="white"/>
<path d="M6.38806 20.3907H7.32786L7.45181 14.6836C7.8328 13.3912 8.69932 12.6085 9.4142 12.3951C9.80536 12.2989 10.339 12.2625 11.0867 12.5856C11.8343 12.9087 12.0737 13.4238 12.2585 13.7484C12.4433 14.073 13.7771 14.5139 13.5762 14.2299C13.2915 13.769 12.4811 11.7324 10.5256 11.6001C10.1111 11.5549 9.69258 11.5622 9.27996 11.622C8.54844 11.7542 7.74162 12.0489 7.45181 12.7587L7.32786 1.47827L6.38806 1.92671V20.3907Z" fill="white"/>
<path d="M11.1759 0C13.3863 0 15.5471 0.655457 17.3849 1.88348C19.2228 3.11151 20.6553 4.85695 21.5011 6.89909C22.347 8.94122 22.5683 11.1883 22.1371 13.3562C21.7059 15.5242 20.6415 17.5155 19.0785 19.0785C17.5155 20.6415 15.5242 21.7059 13.3562 22.1371C11.1883 22.5683 8.94122 22.347 6.89909 21.5011C4.85695 20.6553 3.11151 19.2228 1.88348 17.3849C0.655457 15.5471 0 13.3863 0 11.1759C0 8.21189 1.17746 5.36925 3.27335 3.27335C5.36925 1.17746 8.21189 0 11.1759 0V0Z" fill="black"/>
<path d="M13.2245 15.965L12.8269 15.0272L12.5836 14.4235C12.4679 14.1555 12.3387 13.8936 12.1966 13.6386C12.0861 13.4342 12.8423 13.5567 13.4111 14.037C13.4773 14.1058 13.5379 14.1798 13.5922 14.2583C13.721 14.4763 13.8381 14.7009 13.9431 14.9314L14.1608 14.5457L14.5712 13.8199C15.5545 12.0939 16.54 11.231 17.5275 11.231C17.8489 11.2293 18.1666 11.2996 18.4573 11.4366L17.5339 12.3613C17.3935 12.2708 17.2324 12.2177 17.0657 12.2071C16.6767 12.2071 16.2898 12.4212 15.9051 12.8495C15.5204 13.2777 15.0159 14.055 14.3916 15.1814L14.1929 15.5411L14.706 16.7744L14.9945 17.4296L15.2702 18.0783C15.655 18.9905 16.012 19.4466 16.3411 19.4466C16.8199 19.4466 17.1683 19.0783 17.3864 18.3417C17.5446 18.4102 17.6236 18.5022 17.6236 18.6179C17.6236 18.8063 17.4954 19.0996 17.2388 19.4979C16.8541 20.0931 16.4181 20.3907 15.9307 20.3907C15.5801 20.3907 15.2669 20.198 14.991 19.8126C14.715 19.4272 14.3271 18.6372 13.8273 17.4425L13.4746 16.5882L13.3335 16.8644C12.1066 19.2153 10.8625 20.3908 9.60136 20.3908C9.29618 20.3822 8.99647 20.3078 8.72278 20.1725L9.66549 19.2539C9.83086 19.3435 10.0162 19.3899 10.2042 19.3888C10.7643 19.3888 11.3457 18.9605 11.9484 18.1041C12.3825 17.5096 12.7664 16.8801 13.0962 16.2221L13.2245 15.965Z" fill="white"/>
<path d="M6.38806 20.3907H7.32786L7.45181 14.6836C7.8328 13.3912 8.69932 12.6085 9.4142 12.3951C9.80536 12.2989 10.339 12.2625 11.0867 12.5856C11.8343 12.9087 12.0737 13.4238 12.2585 13.7484C12.4433 14.073 13.7771 14.5139 13.5762 14.2299C13.2915 13.769 12.4811 11.7324 10.5256 11.6001C10.1111 11.5549 9.69258 11.5622 9.27996 11.622C8.54844 11.7542 7.74162 12.0489 7.45181 12.7587L7.32786 1.47827L6.38806 1.92671V20.3907Z" fill="white"/>
<path d="M13.2245 15.965L12.8269 15.0272L12.5836 14.4235C12.4679 14.1555 12.3387 13.8936 12.1966 13.6386C12.0861 13.4342 12.8423 13.5567 13.4111 14.037C13.4773 14.1058 13.5379 14.1798 13.5922 14.2583C13.721 14.4763 13.8381 14.7009 13.9431 14.9314L14.1608 14.5457L14.5712 13.8199C15.5545 12.0939 16.54 11.231 17.5275 11.231C17.8489 11.2293 18.1666 11.2996 18.4573 11.4366L17.5339 12.3613C17.3935 12.2708 17.2324 12.2177 17.0657 12.2071C16.6767 12.2071 16.2898 12.4212 15.9051 12.8495C15.5204 13.2777 15.0159 14.055 14.3916 15.1814L14.1929 15.5411L14.706 16.7744L14.9945 17.4296L15.2702 18.0783C15.655 18.9905 16.012 19.4466 16.3411 19.4466C16.8199 19.4466 17.1683 19.0783 17.3864 18.3417C17.5446 18.4102 17.6236 18.5022 17.6236 18.6179C17.6236 18.8063 17.4954 19.0996 17.2388 19.4979C16.8541 20.0931 16.4181 20.3907 15.9307 20.3907C15.5801 20.3907 15.2669 20.198 14.991 19.8126C14.715 19.4272 14.3271 18.6372 13.8273 17.4425L13.4746 16.5882L13.3335 16.8644C12.1066 19.2153 10.8625 20.3908 9.60136 20.3908C9.29618 20.3822 8.99647 20.3078 8.72278 20.1725L9.66549 19.2539C9.83086 19.3435 10.0162 19.3899 10.2042 19.3888C10.7643 19.3888 11.3457 18.9605 11.9484 18.1041C12.3825 17.5096 12.7664 16.8801 13.0962 16.2221L13.2245 15.965Z" fill="white"/>
<path d="M6.38806 20.3907H7.32786L7.45181 14.6836C7.8328 13.3912 8.69932 12.6085 9.4142 12.3951C9.80536 12.2989 10.339 12.2625 11.0867 12.5856C11.8343 12.9087 12.0737 13.4238 12.2585 13.7484C12.4433 14.073 13.7771 14.5139 13.5762 14.2299C13.2915 13.769 12.4811 11.7324 10.5256 11.6001C10.1111 11.5549 9.69258 11.5622 9.27996 11.622C8.54844 11.7542 7.74162 12.0489 7.45181 12.7587L7.32786 1.47827L6.38806 1.92671V20.3907Z" fill="white"/>
<path d="M11.1759 0C13.3863 0 15.5471 0.655457 17.3849 1.88348C19.2228 3.11151 20.6553 4.85695 21.5011 6.89909C22.347 8.94122 22.5683 11.1883 22.1371 13.3562C21.7059 15.5242 20.6415 17.5155 19.0785 19.0785C17.5155 20.6415 15.5242 21.7059 13.3562 22.1371C11.1883 22.5683 8.94122 22.347 6.89909 21.5011C4.85695 20.6553 3.11151 19.2228 1.88348 17.3849C0.655457 15.5471 0 13.3863 0 11.1759C0 8.21189 1.17746 5.36925 3.27335 3.27335C5.36925 1.17746 8.21189 0 11.1759 0V0Z" fill="black"/>
<path d="M13.2245 15.965L12.8269 15.0272L12.5836 14.4235C12.4679 14.1555 12.3387 13.8936 12.1966 13.6386C12.0861 13.4342 12.8423 13.5567 13.4111 14.037C13.4773 14.1058 13.5379 14.1798 13.5922 14.2583C13.721 14.4763 13.8381 14.7009 13.9431 14.9314L14.1608 14.5457L14.5712 13.8199C15.5545 12.0939 16.54 11.231 17.5275 11.231C17.8489 11.2293 18.1666 11.2996 18.4573 11.4366L17.5339 12.3613C17.3935 12.2708 17.2324 12.2177 17.0657 12.2071C16.6767 12.2071 16.2898 12.4212 15.9051 12.8495C15.5204 13.2777 15.0159 14.055 14.3916 15.1814L14.1929 15.5411L14.706 16.7744L14.9945 17.4296L15.2702 18.0783C15.655 18.9905 16.012 19.4466 16.3411 19.4466C16.8199 19.4466 17.1683 19.0783 17.3864 18.3417C17.5446 18.4102 17.6236 18.5022 17.6236 18.6179C17.6236 18.8063 17.4954 19.0996 17.2388 19.4979C16.8541 20.0931 16.4181 20.3907 15.9307 20.3907C15.5801 20.3907 15.2669 20.198 14.991 19.8126C14.715 19.4272 14.3271 18.6372 13.8273 17.4425L13.4746 16.5882L13.3335 16.8644C12.1066 19.2153 10.8625 20.3908 9.60136 20.3908C9.29618 20.3822 8.99647 20.3078 8.72278 20.1725L9.66549 19.2539C9.83086 19.3435 10.0162 19.3899 10.2042 19.3888C10.7643 19.3888 11.3457 18.9605 11.9484 18.1041C12.3825 17.5096 12.7664 16.8801 13.0962 16.2221L13.2245 15.965Z" fill="white"/>
<path d="M6.38806 20.3907H7.32786L7.45181 14.6836C7.8328 13.3912 8.69932 12.6085 9.4142 12.3951C9.80536 12.2989 10.339 12.2625 11.0867 12.5856C11.8343 12.9087 12.0737 13.4238 12.2585 13.7484C12.4433 14.073 13.7771 14.5139 13.5762 14.2299C13.2915 13.769 12.4811 11.7324 10.5256 11.6001C10.1111 11.5549 9.69258 11.5622 9.27996 11.622C8.54844 11.7542 7.74162 12.0489 7.45181 12.7587L7.32786 1.47827L6.38806 1.92671V20.3907Z" fill="white"/>
<path d="M13.2245 15.965L12.8269 15.0272L12.5836 14.4235C12.4679 14.1555 12.3387 13.8936 12.1966 13.6386C12.0861 13.4342 12.8423 13.5567 13.4111 14.037C13.4773 14.1058 13.5379 14.1798 13.5922 14.2583C13.721 14.4763 13.8381 14.7009 13.9431 14.9314L14.1608 14.5457L14.5712 13.8199C15.5545 12.0939 16.54 11.231 17.5275 11.231C17.8489 11.2293 18.1666 11.2996 18.4573 11.4366L17.5339 12.3613C17.3935 12.2708 17.2324 12.2177 17.0657 12.2071C16.6767 12.2071 16.2898 12.4212 15.9051 12.8495C15.5204 13.2777 15.0159 14.055 14.3916 15.1814L14.1929 15.5411L14.706 16.7744L14.9945 17.4296L15.2702 18.0783C15.655 18.9905 16.012 19.4466 16.3411 19.4466C16.8199 19.4466 17.1683 19.0783 17.3864 18.3417C17.5446 18.4102 17.6236 18.5022 17.6236 18.6179C17.6236 18.8063 17.4954 19.0996 17.2388 19.4979C16.8541 20.0931 16.4181 20.3907 15.9307 20.3907C15.5801 20.3907 15.2669 20.198 14.991 19.8126C14.715 19.4272 14.3271 18.6372 13.8273 17.4425L13.4746 16.5882L13.3335 16.8644C12.1066 19.2153 10.8625 20.3908 9.60136 20.3908C9.29618 20.3822 8.99647 20.3078 8.72278 20.1725L9.66549 19.2539C9.83086 19.3435 10.0162 19.3899 10.2042 19.3888C10.7643 19.3888 11.3457 18.9605 11.9484 18.1041C12.3825 17.5096 12.7664 16.8801 13.0962 16.2221L13.2245 15.965Z" fill="white"/>
<path d="M6.38806 20.3907H7.32786L7.45181 14.6836C7.8328 13.3912 8.69932 12.6085 9.4142 12.3951C9.80536 12.2989 10.339 12.2625 11.0867 12.5856C11.8343 12.9087 12.0737 13.4238 12.2585 13.7484C12.4433 14.073 13.7771 14.5139 13.5762 14.2299C13.2915 13.769 12.4811 11.7324 10.5256 11.6001C10.1111 11.5549 9.69258 11.5622 9.27996 11.622C8.54844 11.7542 7.74162 12.0489 7.45181 12.7587L7.32786 1.47827L6.38806 1.92671V20.3907Z" fill="white"/>
<path d="M11.1759 0C13.3863 0 15.5471 0.655457 17.3849 1.88348C19.2228 3.11151 20.6553 4.85695 21.5011 6.89909C22.347 8.94122 22.5683 11.1883 22.1371 13.3562C21.7059 15.5242 20.6415 17.5155 19.0785 19.0785C17.5155 20.6415 15.5242 21.7059 13.3562 22.1371C11.1883 22.5683 8.94122 22.347 6.89909 21.5011C4.85695 20.6553 3.11151 19.2228 1.88348 17.3849C0.655457 15.5471 0 13.3863 0 11.1759C0 8.21189 1.17746 5.36925 3.27335 3.27335C5.36925 1.17746 8.21189 0 11.1759 0V0Z" fill="black"/>
<path d="M13.2245 15.965L12.8269 15.0272L12.5836 14.4235C12.4679 14.1555 12.3387 13.8936 12.1966 13.6386C12.0861 13.4342 12.8423 13.5567 13.4111 14.037C13.4773 14.1058 13.5379 14.1798 13.5922 14.2583C13.721 14.4763 13.8381 14.7009 13.9431 14.9314L14.1608 14.5457L14.5712 13.8199C15.5545 12.0939 16.54 11.231 17.5275 11.231C17.8489 11.2293 18.1666 11.2996 18.4573 11.4366L17.5339 12.3613C17.3935 12.2708 17.2324 12.2177 17.0657 12.2071C16.6767 12.2071 16.2898 12.4212 15.9051 12.8495C15.5204 13.2777 15.0159 14.055 14.3916 15.1814L14.1929 15.5411L14.706 16.7744L14.9945 17.4296L15.2702 18.0783C15.655 18.9905 16.012 19.4466 16.3411 19.4466C16.8199 19.4466 17.1683 19.0783 17.3864 18.3417C17.5446 18.4102 17.6236 18.5022 17.6236 18.6179C17.6236 18.8063 17.4954 19.0996 17.2388 19.4979C16.8541 20.0931 16.4181 20.3907 15.9307 20.3907C15.5801 20.3907 15.2669 20.198 14.991 19.8126C14.715 19.4272 14.3271 18.6372 13.8273 17.4425L13.4746 16.5882L13.3335 16.8644C12.1066 19.2153 10.8625 20.3908 9.60136 20.3908C9.29618 20.3822 8.99647 20.3078 8.72278 20.1725L9.66549 19.2539C9.83086 19.3435 10.0162 19.3899 10.2042 19.3888C10.7643 19.3888 11.3457 18.9605 11.9484 18.1041C12.3825 17.5096 12.7664 16.8801 13.0962 16.2221L13.2245 15.965Z" fill="white"/>
<path d="M6.38806 20.3907H7.32786L7.45181 14.6836C7.8328 13.3912 8.69932 12.6085 9.4142 12.3951C9.80536 12.2989 10.339 12.2625 11.0867 12.5856C11.8343 12.9087 12.0737 13.4238 12.2585 13.7484C12.4433 14.073 13.7771 14.5139 13.5762 14.2299C13.2915 13.769 12.4811 11.7324 10.5256 11.6001C10.1111 11.5549 9.69258 11.5622 9.27996 11.622C8.54844 11.7542 7.74162 12.0489 7.45181 12.7587L7.32786 1.47827L6.38806 1.92671V20.3907Z" fill="white"/>
<path d="M13.2245 15.965L12.8269 15.0272L12.5836 14.4235C12.4679 14.1555 12.3387 13.8936 12.1966 13.6386C12.0861 13.4342 12.8423 13.5567 13.4111 14.037C13.4773 14.1058 13.5379 14.1798 13.5922 14.2583C13.721 14.4763 13.8381 14.7009 13.9431 14.9314L14.1608 14.5457L14.5712 13.8199C15.5545 12.0939 16.54 11.231 17.5275 11.231C17.8489 11.2293 18.1666 11.2996 18.4573 11.4366L17.5339 12.3613C17.3935 12.2708 17.2324 12.2177 17.0657 12.2071C16.6767 12.2071 16.2898 12.4212 15.9051 12.8495C15.5204 13.2777 15.0159 14.055 14.3916 15.1814L14.1929 15.5411L14.706 16.7744L14.9945 17.4296L15.2702 18.0783C15.655 18.9905 16.012 19.4466 16.3411 19.4466C16.8199 19.4466 17.1683 19.0783 17.3864 18.3417C17.5446 18.4102 17.6236 18.5022 17.6236 18.6179C17.6236 18.8063 17.4954 19.0996 17.2388 19.4979C16.8541 20.0931 16.4181 20.3907 15.9307 20.3907C15.5801 20.3907 15.2669 20.198 14.991 19.8126C14.715 19.4272 14.3271 18.6372 13.8273 17.4425L13.4746 16.5882L13.3335 16.8644C12.1066 19.2153 10.8625 20.3908 9.60136 20.3908C9.29618 20.3822 8.99647 20.3078 8.72278 20.1725L9.66549 19.2539C9.83086 19.3435 10.0162 19.3899 10.2042 19.3888C10.7643 19.3888 11.3457 18.9605 11.9484 18.1041C12.3825 17.5096 12.7664 16.8801 13.0962 16.2221L13.2245 15.965Z" fill="white"/>
<path d="M6.38806 20.3907H7.32786L7.45181 14.6836C7.8328 13.3912 8.69932 12.6085 9.4142 12.3951C9.80536 12.2989 10.339 12.2625 11.0867 12.5856C11.8343 12.9087 12.0737 13.4238 12.2585 13.7484C12.4433 14.073 13.7771 14.5139 13.5762 14.2299C13.2915 13.769 12.4811 11.7324 10.5256 11.6001C10.1111 11.5549 9.69258 11.5622 9.27996 11.622C8.54844 11.7542 7.74162 12.0489 7.45181 12.7587L7.32786 1.47827L6.38806 1.92671V20.3907Z" fill="white"/>
<path d="M27.3411 20.7552H29.0893V12.1338C29.7838 10.9603 30.8615 10.3376 32.1547 10.3376C34.0706 10.3376 35.2919 11.6309 35.2919 13.6904V20.7552H37.0402V13.1875C37.0402 10.625 35.3159 8.87679 32.8013 8.87679C31.2447 8.87679 29.9754 9.5713 29.0893 10.9603V3.10522L27.3411 3.46445V20.7552Z" fill="black"/>
<path d="M40.8238 25.9999C42.5481 25.9999 43.3863 25.3054 44.1766 23.4135L50.0679 9.06838H48.1281L44.3682 18.6717L40.8238 9.06838H38.884L43.3863 20.7552L42.5242 22.8866C42.0931 23.9164 41.5423 24.3714 40.6562 24.3714C40.3928 24.3714 40.0096 24.3475 39.6983 24.2756V25.8323C40.1054 25.952 40.4886 25.9999 40.8238 25.9999Z" fill="black"/>
<path d="M52.2484 20.7552H53.9726V19.2225C54.9066 20.3241 56.1998 20.9228 57.6607 20.9228C60.75 20.9228 63.1449 18.2885 63.1449 14.9118C63.1449 11.559 60.7979 8.92469 57.7565 8.92469C56.1998 8.92469 54.8827 9.5713 53.9966 10.6729V3.27286L52.2484 3.63209V20.7552ZM57.3254 19.4141C55.9843 19.4141 54.7629 18.8154 53.9966 17.7856V12.0619C54.739 11.0322 55.9364 10.4574 57.3254 10.4574C59.6724 10.4574 61.4206 12.3733 61.4206 14.9357C61.4206 17.4982 59.6724 19.4141 57.3254 19.4141Z" fill="black"/>
<path d="M66.2105 20.7552H67.9587V12.7804C68.5574 11.2716 69.659 10.4095 71.0959 10.4095C71.4791 10.4095 71.9341 10.5053 72.3173 10.625V9.04443C71.9581 8.92469 71.6228 8.87679 71.2157 8.87679C69.7309 8.87679 68.5574 9.83473 67.9587 11.4632V9.06838H66.2105V20.7552Z" fill="black"/>
<path d="M75.492 6.17062C76.1865 6.17062 76.7612 5.59586 76.7612 4.92531C76.7612 4.25475 76.1865 3.67999 75.492 3.67999C74.7975 3.67999 74.2227 4.25475 74.2227 4.92531C74.2227 5.59586 74.7975 6.17062 75.492 6.17062ZM74.6059 20.7552H76.3541V9.06838H74.6059V20.7552Z" fill="black"/>
<path d="M84.8002 20.9228C86.3329 20.9228 87.6501 20.3241 88.5362 19.1986V20.7552H90.2844V3.10522L88.5362 3.46445V10.5532C87.6022 9.49945 86.3329 8.92469 84.896 8.92469C81.8067 8.92469 79.4118 11.559 79.4118 14.9357C79.4118 18.2885 81.7588 20.9228 84.8002 20.9228ZM85.2313 19.3902C82.8844 19.3902 81.1361 17.4743 81.1361 14.9118C81.1361 12.3493 82.8844 10.4574 85.2313 10.4574C86.5485 10.4574 87.7698 11.0561 88.5362 12.038V17.8335C87.7938 18.8393 86.5964 19.3902 85.2313 19.3902Z" fill="black"/>
<path d="M92.3926 20.7552H94.3804L97.8529 15.9895L101.349 20.7552H103.433L98.9306 14.7442L103.169 9.06838H101.182L97.9726 13.5228L94.7396 9.06838H92.6561L96.871 14.6963L92.3926 20.7552Z" fill="black"/>
</svg>
